<?xml version="1.0" standalone="no"?>
<!DOCTYPE svg PUBLIC "-//W3C//DTD SVG 20010904//EN"
 "http://www.w3.org/TR/2001/REC-SVG-20010904/DTD/svg10.dtd">
<svg version="1.0" xmlns="http://www.w3.org/2000/svg"
 width="645.000000pt" height="644.000000pt" viewBox="0 0 645.000000 644.000000"
 preserveAspectRatio="xMidYMid meet">

<g transform="translate(0.000000,644.000000) scale(0.100000,-0.100000)"
fill="#000000" stroke="none">
<path d="M0 3220 l0 -3220 1448 1 1447 1 -125 19 c-577 86 -1099 312 -1550
669 -135 106 -403 375 -510 510 -391 493 -626 1078 -690 1719 -13 133 -13 449
0 582 64 642 299 1226 690 1719 107 135 375 403 510 510 493 391 1077 626
1719 690 133 13 449 13 582 0 642 -64 1226 -299 1719 -690 135 -107 403 -375
510 -510 386 -487 624 -1074 689 -1700 5 -53 9 487 10 1418 l1 1502 -3225 0
-3225 0 0 -3220z"/>
<path d="M2575 5805 c-375 -96 -723 -270 -1025 -511 -109 -88 -316 -295 -404
-404 -289 -363 -483 -795 -556 -1244 -48 -293 -48 -579 0 -872 73 -449 267
-881 556 -1244 88 -109 295 -316 404 -404 919 -734 2189 -791 3165 -141 518
345 898 858 1079 1457 35 117 80 321 74 337 -1 5 -59 -29 -128 -75 -736 -494
-1696 -501 -2435 -16 -468 306 -793 763 -930 1307 -148 585 -42 1227 285 1728
38 59 70 110 70 113 0 8 -24 3 -155 -31z"/>
<path d="M6437 2898 c-4 -46 -16 -139 -27 -208 -88 -540 -318 -1059 -660
-1490 -107 -135 -375 -404 -510 -510 -451 -357 -973 -583 -1550 -669 l-125
-19 1443 -1 1442 -1 0 1490 c0 820 -2 1490 -4 1490 -1 0 -6 -37 -9 -82z"/>
</g>
</svg>
